<svg xmlns="http://www.w3.org/2000/svg" width="49.216" height="49.216" viewBox="0 0 49.216 49.216">
  <path id="civil-right" d="M48.495,47.774H32.055V40.945a4.8,4.8,0,0,0,1.3.178H44.4a4.818,4.818,0,0,0,4.813-4.813.721.721,0,0,0-.721-.721H46.506L40.843,25.1a2.893,2.893,0,0,0-1.245-4.93V8.56h1.79v.4a.721.721,0,0,0,1.442,0v-.4h3.557c2.482,0,2.485-3.867,0-3.867H42.829V3.968a.721.721,0,0,0-1.442,0v.725H39.6V3.968a.721.721,0,0,0-1.442,0v.725H32.2V3.18a2.569,2.569,0,0,0-4.135-2.04,2.57,2.57,0,0,0-4.272,0,2.568,2.568,0,0,0-3.812.8A2.57,2.57,0,0,0,15.96,4.058v.635h-4.9V3.968a.721.721,0,0,0-1.442,0v.725H7.829V3.968a.721.721,0,0,0-1.442,0v.725H2.83c-2.482,0-2.485,3.867,0,3.867H6.387v.4a.721.721,0,0,0,1.442,0v-.4h1.79V20.168A2.893,2.893,0,0,0,8.373,25.1L2.71,35.59H.721A.721.721,0,0,0,0,36.311a4.818,4.818,0,0,0,4.813,4.813H15.866a4.8,4.8,0,0,0,1.3-.179v6.828H.721a.721.721,0,1,0,0,1.442H48.495a.721.721,0,0,0,0-1.442ZM44.867,35.59h-1.45a.721.721,0,1,0,0,1.442H47.7a3.377,3.377,0,0,1-3.293,2.65H33.35a3.377,3.377,0,0,1-3.293-2.65H39.58V35.59H32.885l5.293-9.807a2.892,2.892,0,0,0,1.4,0ZM18.6,25.877h12.01V29.2H18.6Zm21.729-2.9a1.456,1.456,0,1,1-1.456-1.454A1.457,1.457,0,0,1,40.333,22.973Zm-2.177-2.805A2.893,2.893,0,0,0,36.91,25.1l-4.856,9V25.156a.721.721,0,0,0-.721-.721H30.7A5.028,5.028,0,0,1,32.12,20.6c2.285-2.282,4.2-4.583,4.2-8.012V9.684a2.551,2.551,0,0,0-.26-1.124h2.093V20.168Zm8.23-14.033a.492.492,0,0,1,0,.983H42.829V6.135Zm-5,0v.983H39.6V6.135Zm-3.232,0v.983l-5.956,0v-.98ZM29.628,2.051A1.131,1.131,0,0,1,30.758,3.18V7.115H28.5V3.144A1.13,1.13,0,0,1,29.628,2.051Zm-3.7-.609a1.13,1.13,0,0,1,1.129,1.128l0,4.575a1.324,1.324,0,0,0-1.047,1.293,3.788,3.788,0,0,0,.5,1.891A1.139,1.139,0,0,1,24.8,9.363V2.569a1.13,1.13,0,0,1,1.129-1.128Zm-3.7.609a1.13,1.13,0,0,1,1.128,1.093V8.886A1.129,1.129,0,0,1,21.1,8.85V3.18A1.131,1.131,0,0,1,22.23,2.051ZM17.4,4.058a1.129,1.129,0,0,1,2.257-.036V8.008A1.129,1.129,0,0,1,17.4,7.972ZM15.96,6.135v.983h-4.9V6.135ZM2.83,7.118a.492.492,0,0,1,0-.983H6.387v.983Zm5,0V6.135h1.79v.983H7.829ZM15.96,8.56v3.368a.721.721,0,1,0,1.442,0V10.281a2.565,2.565,0,0,0,2.579-.187,2.568,2.568,0,0,0,3.857.76,2.57,2.57,0,0,0,3.623.572,3.8,3.8,0,0,0,2.369.826h1.154v.016a6.323,6.323,0,0,0-5.6,6.271.721.721,0,0,0,1.442,0A4.879,4.879,0,0,1,31.7,13.67a.721.721,0,0,0,.721-.721V11.532a.721.721,0,0,0-.721-.721H29.829a2.379,2.379,0,0,1-2.375-2.254q3.178,0,6.357,0A1.129,1.129,0,0,1,34.88,9.684v2.905c0,3.037-1.774,4.99-3.779,6.992a6.594,6.594,0,0,0-1.842,4.854H19.9a7.513,7.513,0,0,0-1.366-4.427A7.113,7.113,0,0,1,17.4,16.155a.721.721,0,1,0-1.442,0,8.552,8.552,0,0,0,1.364,4.638,6.176,6.176,0,0,1,1.134,3.642h-.575a.721.721,0,0,0-.721.721v8.938l-4.856-9a2.893,2.893,0,0,0-1.245-4.93V8.56Zm-5.62,12.959a1.454,1.454,0,1,1-1.456,1.454A1.457,1.457,0,0,1,10.339,21.519Zm-.7,4.265a2.894,2.894,0,0,0,1.4,0L16.33,35.59H4.349Zm-4.829,13.9a3.377,3.377,0,0,1-3.293-2.65h17.64a3.377,3.377,0,0,1-3.293,2.65ZM18.6,47.774V40.267a4.81,4.81,0,0,0,2.076-3.956.721.721,0,0,0-.721-.721H18.6V30.644h12.01V35.59H29.258a.721.721,0,0,0-.721.721,4.81,4.81,0,0,0,2.076,3.956v7.507Z" transform="translate(0)" fill="#5e502e"/>
</svg>
