<svg xmlns="http://www.w3.org/2000/svg" xmlns:xlink="http://www.w3.org/1999/xlink" width="48.808" height="49" viewBox="0 0 48.808 49">
  <defs>
    <linearGradient id="linear-gradient" x1="0.5" x2="0.5" y2="1" gradientUnits="objectBoundingBox">
      <stop offset="0" stop-color="#8e7f4c"/>
      <stop offset="1" stop-color="#474026"/>
    </linearGradient>
  </defs>
  <g id="retorna" transform="translate(-0.016)">
    <g id="Grupo_124" data-name="Grupo 124" transform="translate(0.016)">
      <path id="Caminho_41" data-name="Caminho 41" d="M48.676,331.128a3.252,3.252,0,0,0-4.162-1.958l-.016,0-9.413,2.537a3.007,3.007,0,0,0-3.3-2.3c-.544.068-2.386.329-4.335.606-1.857.264-3.778.537-4.306.6a23.957,23.957,0,0,1-4.351-.107c-.579-.046-1.178-.093-1.79-.132a.953.953,0,0,0-.12,1.9c.6.038,1.188.084,1.76.129a25.093,25.093,0,0,0,4.736.1c.545-.068,2.388-.329,4.339-.607,1.856-.264,3.774-.536,4.3-.6a1.1,1.1,0,0,1,1.225.946c.024.189.086.69-1.232,1.294a51.752,51.752,0,0,1-7.928,2.919.953.953,0,1,0,.485,1.844,53.726,53.726,0,0,0,8.237-3.03,4.41,4.41,0,0,0,1.917-1.492l10.259-2.765c1.131-.281,1.71.171,1.874.688a1.176,1.176,0,0,1-.841,1.453c-.8.3-2.71,1.132-5.129,2.185-3.206,1.395-7.2,3.131-10.378,4.407a18.119,18.119,0,0,1-9.17,1.735l-6.526-.072a.952.952,0,0,0-.858.518l-.9,1.743a.96.96,0,0,0-.073.189c-.132.494-.3.7-.988.7H2.4a.421.421,0,0,1-.308-.177.945.945,0,0,1-.156-.809c1.148-5.48,3.41-8.875,6.916-10.379a.953.953,0,1,0-.751-1.752c-4.119,1.767-6.746,5.607-8.031,11.74a2.855,2.855,0,0,0,.543,2.4,2.311,2.311,0,0,0,1.788.882H12a2.669,2.669,0,0,0,2.8-2.009l.583-1.135,5.937.066a19.98,19.98,0,0,0,9.9-1.872c3.208-1.286,7.212-3.028,10.429-4.428,2.3-1,4.294-1.868,5.045-2.15l.009,0a3.065,3.065,0,0,0,1.973-3.81Z" transform="translate(-0.007 -297.469)" fill="url(#linear-gradient)"/>
      <path id="Caminho_42" data-name="Caminho 42" d="M123.638,343.2a.953.953,0,1,0,.954.953.953.953,0,0,0-.954-.953Z" transform="translate(-110.991 -310.48)" fill="url(#linear-gradient)"/>
      <path id="Caminho_43" data-name="Caminho 43" d="M111.262,30.506a.953.953,0,0,0,.953-.953V25.739a.953.953,0,0,0-.953-.953A9.533,9.533,0,1,1,120.747,14.3h-1.22a.953.953,0,0,0-.783,1.5l4.127,5.952a.953.953,0,0,0,1.567,0l4.127-5.952a.953.953,0,0,0-.783-1.5h-1.3a15.253,15.253,0,1,0-15.223,16.206Zm0-28.6a13.361,13.361,0,0,1,13.346,13.346.953.953,0,0,0,.953.953h.4l-2.306,3.326-2.306-3.326h.4a.953.953,0,0,0,.953-.953,11.44,11.44,0,1,0-12.393,11.4v1.912a13.346,13.346,0,0,1,.953-26.659Z" transform="translate(-86.858)" fill="url(#linear-gradient)"/>
      <path id="Caminho_44" data-name="Caminho 44" d="M234.775,103.256a.953.953,0,0,0,1.348-1.348,2.527,2.527,0,0,0-1.077-.64v-.315a.953.953,0,1,0-1.907,0v.5a2.542,2.542,0,0,0-.612,4.046l1.782,1.782a.635.635,0,1,1-.9.9.953.953,0,1,0-1.348,1.348,2.529,2.529,0,0,0,1.077.641v.314a.953.953,0,0,0,1.907,0v-.5a2.545,2.545,0,0,0,.612-4.047l-1.782-1.782a.636.636,0,1,1,.9-.9Z" transform="translate(-209.689 -90.467)" fill="url(#linear-gradient)"/>
      <path id="Caminho_45" data-name="Caminho 45" d="M156.334,195.141" transform="translate(-138.3 -172.23)" fill="none" stroke="#707070" stroke-width="1"/>
    </g>
  </g>
</svg>
