<svg xmlns="http://www.w3.org/2000/svg" width="788.101" height="943" viewBox="0 0 788.101 943">
  <g id="justica" transform="translate(-42.052)" opacity="0.5">
    <g id="Grupo_143" data-name="Grupo 143" transform="translate(42.052 0)">
      <path id="Caminho_49" data-name="Caminho 49" d="M264.409,265.979a18.406,18.406,0,1,1,18.16-15.416,18.618,18.618,0,0,1-18.16,15.416Z" transform="translate(129.64 192.941)" fill="#2b2b2b"/>
      <path id="Caminho_50" data-name="Caminho 50" d="M595.776,584.27H583.935v-19.2A71.647,71.647,0,0,0,512.371,493.5H403.449V292.977a18.418,18.418,0,1,0-36.836,0V493.5H257.691a71.645,71.645,0,0,0-71.565,71.565v19.2H174.285a71.645,71.645,0,0,0-71.565,71.565v37.624a18.419,18.419,0,0,0,18.418,18.418H648.923a18.419,18.419,0,0,0,18.418-18.418V655.837a71.646,71.646,0,0,0-71.565-71.567Zm-372.815-19.2a34.769,34.769,0,0,1,34.729-34.729H512.369A34.769,34.769,0,0,1,547.1,565.066v19.2H222.96v-19.2ZM630.505,675.041H139.556v-19.2a34.769,34.769,0,0,1,34.729-34.729H595.776a34.769,34.769,0,0,1,34.729,34.729Z" transform="translate(9.018 231.123)" fill="#2b2b2b"/>
      <path id="Caminho_51" data-name="Caminho 51" d="M830.144,503.009v-.042c0-.138-.009-.274-.017-.413,0-.04,0-.079-.006-.12-.005-.1-.011-.19-.018-.285s-.013-.171-.02-.258l-.017-.186A18.287,18.287,0,0,0,828.1,495L708.5,253.59a213.628,213.628,0,0,0,78.381-26.336,18.418,18.418,0,1,0-18.293-31.972,178.4,178.4,0,0,1-175.621.446L476.865,130.073a71.374,71.374,0,1,0-81.529,0L279.231,195.73a178.4,178.4,0,0,1-175.621-.446,18.418,18.418,0,1,0-18.293,31.972A213.583,213.583,0,0,0,163.7,253.591L44.106,495a18.323,18.323,0,0,0-1.971,6.7l-.017.186c-.007.087-.015.171-.02.258s-.013.19-.018.285l-.006.12c-.007.138-.013.274-.017.413v.042q-.006.257-.006.514c.035,82.735,67.268,150.033,149.906,150.033s149.874-67.3,149.907-150.033q0-.257-.005-.514v-.042q-.006-.207-.017-.414l-.006-.118c-.006-.1-.011-.193-.018-.289s-.013-.166-.018-.249l-.017-.2a18.311,18.311,0,0,0-1.969-6.7L220.2,253.556a213.56,213.56,0,0,0,77.16-25.765l120.319-68.036V357.577a18.418,18.418,0,0,0,36.836,0V159.756L574.84,227.793A213.518,213.518,0,0,0,652,253.556L532.388,495a18.325,18.325,0,0,0-1.971,6.7c-.005.064-.011.129-.017.2-.007.083-.013.166-.018.249s-.013.193-.018.289c0,.039,0,.079-.006.118q-.011.207-.017.414v.042q-.006.257-.006.514c.035,82.735,67.27,150.033,149.909,150.033s149.873-67.3,149.908-150.033c0-.171-.005-.343-.009-.514ZM191.958,616.72c-56.088,0-102.769-41.12-111.576-94.843H303.536C294.728,575.6,248.046,616.72,191.958,616.72ZM90.149,485.041,191.958,279.528,293.768,485.041ZM436.1,36.836a34.616,34.616,0,1,1-34.539,34.617A34.616,34.616,0,0,1,436.1,36.836ZM680.244,279.529,782.053,485.043H578.431Zm0,337.191c-56.088,0-102.77-41.12-111.578-94.843H791.82C783.01,575.6,736.332,616.72,680.244,616.72Z" transform="translate(-42.052 0)" fill="#2b2b2b"/>
    </g>
  </g>
</svg>
