<svg xmlns="http://www.w3.org/2000/svg" xmlns:xlink="http://www.w3.org/1999/xlink" width="22" height="22" viewBox="0 0 22 22">
  <defs>
    <clipPath id="clip-path">
      <rect id="Ret칙ngulo_43" data-name="Ret칙ngulo 43" width="22" height="22" transform="translate(897 3333)" fill="#fff"/>
    </clipPath>
  </defs>
  <g id="Grupo_de_m치scara_16" data-name="Grupo de m치scara 16" transform="translate(-897 -3333)" clip-path="url(#clip-path)">
    <path id="instagram" d="M11,6.92a5.639,5.639,0,1,0,5.639,5.639A5.63,5.63,0,0,0,11,6.92Zm0,9.306a3.666,3.666,0,1,1,3.666-3.666A3.673,3.673,0,0,1,11,16.226ZM18.184,6.69a1.315,1.315,0,1,1-1.315-1.315A1.312,1.312,0,0,1,18.184,6.69Zm3.735,1.335a6.509,6.509,0,0,0-1.777-4.609,6.552,6.552,0,0,0-4.609-1.777c-1.816-.1-7.259-.1-9.075,0A6.543,6.543,0,0,0,1.85,3.411,6.531,6.531,0,0,0,.074,8.02c-.1,1.816-.1,7.259,0,9.075A6.509,6.509,0,0,0,1.85,21.7,6.56,6.56,0,0,0,6.459,23.48c1.816.1,7.259.1,9.075,0A6.509,6.509,0,0,0,20.142,21.7a6.552,6.552,0,0,0,1.777-4.609c.1-1.816.1-7.254,0-9.07ZM19.573,19.043a3.712,3.712,0,0,1-2.091,2.091c-1.448.574-4.883.442-6.483.442s-5.04.128-6.483-.442a3.712,3.712,0,0,1-2.091-2.091C1.85,17.6,1.983,14.16,1.983,12.56s-.128-5.04.442-6.483A3.712,3.712,0,0,1,4.515,3.985C5.963,3.411,9.4,3.544,11,3.544s5.04-.128,6.483.442a3.712,3.712,0,0,1,2.091,2.091c.574,1.448.442,4.883.442,6.483S20.147,17.6,19.573,19.043Z" transform="translate(897.004 3331.44)" fill="#fff"/>
  </g>
</svg>
