<?xml version="1.0"?>
<svg xmlns="http://www.w3.org/2000/svg" xmlns:xlink="http://www.w3.org/1999/xlink" xmlns:svgjs="http://svgjs.com/svgjs" version="1.1" width="512" height="512" x="0" y="0" viewBox="0 0 512 512" style="enable-background:new 0 0 512 512" xml:space="preserve" class=""><g><g xmlns="http://www.w3.org/2000/svg"><g><path d="m507.984 317.691c-2.528-1.887-5.799-2.474-8.822-1.577-4.829 1.429-9.983 2.312-15.209 2.663 6.719-22.653 10.132-46.146 10.132-70.032 0-65.856-25.699-127.769-72.362-174.333-46.658-46.557-108.688-72.197-174.666-72.197-49.632 0-97.5 14.628-138.431 42.302-4.575 3.094-5.776 9.31-2.683 13.885 3.094 4.576 9.312 5.777 13.886 2.683 37.609-25.429 81.604-38.871 127.228-38.871 125.184 0 227.028 101.621 227.028 226.53 0 23.474-3.581 46.53-10.633 68.662-14.795-3.08-27.292-10.734-30.875-22.666-1.27-4.229-5.162-7.124-9.577-7.124s-8.308 2.896-9.577 7.124c-6.383 21.252-41.016 28.938-66.554 21.373-3.029-.897-6.296-.312-8.824 1.575-2.527 1.888-4.017 4.857-4.017 8.013v6.348h-76.972v-151.817c16.199-3.781 28.971-16.526 32.765-32.695h52.169l-45.272 72.344c-.053.085-.093.163-.138.244-.875 1.486-1.386 3.212-1.386 5.061 0 35.706 29.092 64.755 64.85 64.755s64.849-29.049 64.849-64.755c0-1.87-.523-3.613-1.416-5.11-.036-.065-.066-.128-.108-.194l-54.849-87.649c-1.801-2.879-5.076-4.695-8.477-4.695h-70.221c-4.544-19.393-21.987-33.883-42.766-33.883-20.792 0-38.246 14.49-42.793 33.883h-70.222c-3.446 0-6.649 1.774-8.477 4.695l-54.85 87.649c-.036.058-.062.114-.094.172-.902 1.502-1.43 3.254-1.43 5.133 0 35.706 29.092 64.755 64.85 64.755s64.849-29.049 64.849-64.755c0-1.854-.514-3.584-1.393-5.073-.043-.077-.08-.152-.13-.232l-45.271-72.344h52.169c3.796 16.17 16.58 28.917 32.791 32.696v151.818h-76.682c-19.815 0-35.937 16.095-35.937 35.879v25.879c0 5.523 4.478 10 10 10h199.59v5.527c0 16.667 4.588 30.872 12.228 43.163-30.732 14.895-64.784 22.748-99.2 22.748-125.197-.001-227.054-101.609-227.054-226.502 0-45.511 13.479-89.428 38.979-127.003 3.102-4.57 1.911-10.789-2.659-13.89-4.567-3.101-10.789-1.912-13.89 2.659-27.758 40.902-42.43 88.702-42.43 138.234 0 65.846 25.7 127.75 72.367 174.309 46.661 46.554 108.701 72.192 174.689 72.192 38.887 0 77.369-9.195 111.814-26.652 16.092 16.807 38.023 29.468 59.707 40.159 1.394.687 2.907 1.031 4.422 1.031 1.513 0 3.026-.343 4.42-1.03 41.824-20.609 84.58-48.537 84.58-99.419v-83.633c.001-3.155-1.487-6.124-4.015-8.012zm-147.94-47.75c-21.286 0-39.156-14.876-43.721-34.755h87.44c-4.564 19.879-22.434 34.755-43.719 34.755zm36.795-54.755h-73.59l36.795-58.798zm-262.797-58.798 36.795 58.798h-73.59zm0 113.553c-21.286 0-39.156-14.876-43.721-34.755h87.44c-4.564 19.879-22.434 34.755-43.719 34.755zm89.057-132.404c0-13.169 10.747-23.883 23.958-23.883 13.195 0 23.931 10.714 23.931 23.883 0 13.153-10.735 23.854-23.931 23.854-13.211.001-23.958-10.701-23.958-23.854zm-78.661 246.272v-15.879c0-8.756 7.149-15.879 15.937-15.879h173.653v31.758zm347.562 25.527c0 31.251-20.065 54.418-68.999 79.267-24.821-12.612-42.199-24.791-53.309-37.81-.496-.8-1.084-1.508-1.75-2.115-9.566-12.021-13.914-24.807-13.914-39.341v-71.28c25.526 3.569 53.639-3.321 68.973-20.545 15.341 17.222 43.466 24.115 68.999 20.542z" fill="#000000" data-original="#000000" style="" class=""/><path d="m458.143 368.698c-4.231-3.55-10.539-2.999-14.089 1.232l-31.048 36.997-12.263-10.373c-4.215-3.566-10.526-3.041-14.093 1.177-3.566 4.216-3.04 10.526 1.177 14.093l19.928 16.856c1.812 1.533 4.103 2.365 6.458 2.365.283 0 .567-.012.852-.036 2.649-.227 5.1-1.499 6.809-3.536l37.501-44.687c3.549-4.23 2.998-10.538-1.232-14.088z" fill="#000000" data-original="#000000" style="" class=""/><path d="m79.426 91.459c2.567 0 5.137-.98 7.093-2.936 3.905-3.905 3.905-10.237 0-14.143-3.906-3.905-10.236-3.905-14.143 0l-.028.028c-3.905 3.905-3.891 10.223.015 14.128 1.949 1.951 4.505 2.923 7.063 2.923z" fill="#000000" data-original="#000000" style="" class=""/></g></g></g></svg>
