<svg xmlns="http://www.w3.org/2000/svg" xmlns:xlink="http://www.w3.org/1999/xlink" width="22" height="22" viewBox="0 0 22 22">
  <defs>
    <clipPath id="clip-path">
      <rect id="Ret칙ngulo_43" data-name="Ret칙ngulo 43" width="22" height="22" transform="translate(897 3333)" fill="#fff"/>
    </clipPath>
  </defs>
  <g id="Grupo_de_m치scara_17" data-name="Grupo de m치scara 17" transform="translate(-897 -3333)" clip-path="url(#clip-path)">
    <path id="twitter" d="M19.739,6.519c.014.2.014.391.014.586A12.741,12.741,0,0,1,6.924,19.934,12.742,12.742,0,0,1,0,17.91a9.327,9.327,0,0,0,1.089.056,9.03,9.03,0,0,0,5.6-1.926,4.517,4.517,0,0,1-4.216-3.127,5.686,5.686,0,0,0,.852.07,4.769,4.769,0,0,0,1.187-.154A4.51,4.51,0,0,1,.893,8.4V8.348a4.541,4.541,0,0,0,2.038.572,4.516,4.516,0,0,1-1.4-6.03,12.816,12.816,0,0,0,9.3,4.718,5.09,5.09,0,0,1-.112-1.033,4.513,4.513,0,0,1,7.8-3.085A8.877,8.877,0,0,0,21.386,2.4,4.5,4.5,0,0,1,19.4,4.886a9.039,9.039,0,0,0,2.6-.7,9.692,9.692,0,0,1-2.261,2.331Z" transform="translate(897 3333)" fill="#fff"/>
  </g>
</svg>
